<svg width="105" height="85" viewBox="0 0 105 85" version="1.1" xmlns="http://www.w3.org/2000/svg" xmlns:xlink="http://www.w3.org/1999/xlink">
<g id="Canvas" fill="none">
<g id="logo">
<g id="Logo">
<g id="Group">
<g id="Group_2">
<g id="Vector">
<path d="M 89.6083 85L 68.546 71.2822L 0 71.2822L 0 0L 105 0L 105 71.2822L 96.4006 71.2822L 89.6083 85ZM 0.997033 70.28L 68.8576 70.28L 68.9822 70.3427L 89.2344 83.5593L 95.7774 70.28L 104.003 70.28L 104.003 1.00221L 0.997033 1.00221L 0.997033 70.28Z" fill="#58595B"/>
</g>
</g>
</g>
<g id="Group_3">
<g id="Group_4">
<g id="Vector_2">
<path d="M 2.24332 2.25497C 2.24332 2.75608 1.93175 3.19455 1.12166 3.19455C 0.311573 3.19455 -4.75422e-07 2.75608 -4.75422e-07 2.25497L -4.75422e-07 0.939572C -4.75422e-07 0.438467 0.311573 -4.77891e-07 1.12166 -4.77891e-07C 1.93175 -4.77891e-07 2.24332 0.438467 2.24332 0.939572L 2.24332 2.25497ZM 0.373887 2.25497C 0.373887 2.6308 0.623146 2.88136 1.12166 2.88136C 1.62018 2.88136 1.86944 2.69344 1.86944 2.25497L 1.86944 0.939572C 1.86944 0.563743 1.62018 0.31319 1.12166 0.31319C 0.623146 0.31319 0.373887 0.501105 0.373887 0.939572L 0.373887 2.25497Z" transform="translate(10.1572 11.4628)" fill="#939598"/>
</g>
<g id="Vector_3">
<path d="M 0 1.69123C 0 1.25276 0.186944 0.939573 0.747775 0.939573C 0.934719 0.939573 1.24629 1.00221 1.43323 1.00221L 1.43323 0.0626386L 1.80712 2.38946e-07L 1.80712 3.31982L 1.49555 3.31982L 1.43323 3.06927C 1.24629 3.19455 0.997033 3.31982 0.68546 3.31982C 0.249258 3.31982 0 3.06927 0 2.6308L 0 1.69123ZM 1.37092 1.3154C 1.18398 1.25276 0.872404 1.25276 0.747775 1.25276C 0.498517 1.25276 0.373887 1.37804 0.373887 1.62859L 0.373887 2.56817C 0.373887 2.81872 0.436202 2.94399 0.747775 2.94399C 0.997033 2.94399 1.24629 2.81872 1.37092 2.69344L 1.37092 1.3154Z" transform="translate(13.086 11.3375)" fill="#939598"/>
</g>
<g id="Vector_4">
<path d="M 1.62018 2.38946e-07L 1.99406 2.38946e-07L 1.24629 2.31761L 0.747774 2.31761L 2.37711e-07 2.38946e-07L 0.373888 2.38946e-07L 0.997033 2.00442L 1.62018 2.38946e-07Z" transform="translate(15.3293 12.277)" fill="#939598"/>
</g>
<g id="Vector_5">
<path d="M 0.747775 0.939573L 0.747775 3.38246C 0.747775 3.69565 0.685459 3.75829 0.186943 4.19676L 0 3.94621C 0.373887 3.63301 0.373887 3.57038 0.373887 3.38246L 0.373887 0.939573L 0.747775 0.939573ZM 0.373887 0.563744L 0.373887 2.38946e-07L 0.747775 2.38946e-07L 0.747775 0.563744L 0.373887 0.563744Z" transform="translate(17.448 11.3375)" fill="#939598"/>
</g>
<g id="Vector_6">
<path d="M 0.934718 2.06706C 1.18398 2.06706 1.43323 2.00442 1.68249 1.94178L 1.74481 2.25497C 1.55786 2.31761 1.24629 2.38025 0.934718 2.38025C 0.249258 2.38025 -4.75422e-07 2.06706 -4.75422e-07 1.56595L -4.75422e-07 0.876934C -4.75422e-07 0.375829 0.186944 0 0.872404 0C 1.55786 0 1.74481 0.375829 1.74481 0.876934L 1.74481 1.37804L 0.373887 1.37804L 0.373887 1.56595C 0.373887 1.94178 0.498516 2.06706 0.934718 2.06706ZM 0.373887 1.06485L 1.37092 1.06485L 1.37092 0.876934C 1.37092 0.563743 1.24629 0.375829 0.872404 0.375829C 0.498517 0.375829 0.373887 0.563743 0.373887 0.876934L 0.373887 1.06485Z" transform="translate(18.8813 12.2144)" fill="#939598"/>
</g>
<g id="Vector_7">
<path d="M 1.43323 2.88136C 1.3086 2.94399 1.12166 2.94399 0.934718 2.94399C 0.56083 2.94399 0.373888 2.81872 0.373888 2.44289L 0.373888 0.939573L -4.75422e-07 0.939573L -4.75422e-07 0.626382L 0.373888 0.626382L 0.373888 0.0626386L 0.747775 2.38946e-07L 0.747775 0.626382L 1.37092 0.626382L 1.37092 1.00221L 0.747775 1.00221L 0.747775 2.44289C 0.747775 2.6308 0.747775 2.69344 0.997034 2.69344C 1.12166 2.69344 1.24629 2.69344 1.37092 2.6308L 1.43323 2.88136Z" transform="translate(21.0623 11.6507)" fill="#939598"/>
</g>
<g id="Vector_8">
<path d="M 1.37092 2.31761L 1.37092 0.563744C 1.37092 0.438467 1.30861 0.37583 1.12166 0.37583C 0.934719 0.37583 0.623146 0.501106 0.373888 0.626382L 0.373888 2.38025L -9.50844e-07 2.38025L -9.50844e-07 0.0626387L 0.311572 0.0626387L 0.373888 0.250553C 0.623146 0.125276 0.997033 2.38946e-07 1.30861 2.38946e-07C 1.68249 2.38946e-07 1.80712 0.250553 1.80712 0.563744L 1.80712 2.31761L 1.37092 2.31761Z" transform="translate(23.1187 12.277)" fill="#939598"/>
</g>
<g id="Vector_9">
<path d="M 4.75422e-07 0.563744L 4.75422e-07 2.38946e-07L 0.373887 2.38946e-07L 0.373887 0.563744L 4.75422e-07 0.563744ZM 4.75422e-07 3.25718L 4.75422e-07 0.939573L 0.373887 0.939573L 0.373887 3.25718L 4.75422e-07 3.25718Z" transform="translate(25.6736 11.3375)" fill="#939598"/>
</g>
<g id="Vector_10">
<path d="M 9.50844e-07 2.44289L 9.50844e-07 1.69123C 9.50844e-07 1.19012 0.186945 0.876934 0.934719 0.876934C 1.12166 0.876934 1.37092 0.939573 1.49555 0.939573L 1.43323 1.25276C 1.24629 1.19013 1.05935 1.19013 0.934719 1.19013C 0.560832 1.19013 0.436201 1.3154 0.436201 1.69123L 0.436201 2.44289C 0.436201 2.81872 0.560832 2.94399 0.934719 2.94399C 1.12166 2.94399 1.24629 2.94399 1.43323 2.88136L 1.49555 3.19455C 1.37092 3.25719 1.12166 3.25718 0.934719 3.25718C 0.12463 3.31982 9.50844e-07 3.00663 9.50844e-07 2.44289ZM 1.43323 0.250553C 1.18398 0.375829 1.05935 0.501106 0.81009 0.68902C 0.560831 0.501106 0.373888 0.375829 0.186944 0.250553L 0.311574 2.38946e-07C 0.498517 0.125277 0.623146 0.187915 0.81009 0.313191C 0.934719 0.187915 1.05935 0.125277 1.30861 2.38946e-07L 1.43323 0.250553Z" transform="translate(26.7329 11.3375)" fill="#939598"/>
</g>
<g id="Vector_11">
<path d="M -4.75422e-07 3.31982L -4.75422e-07 0.0626384L 0.373888 0L 0.373888 3.31982L -4.75422e-07 3.31982ZM 1.74481 1.00221L 0.934718 2.1297L 1.80712 3.31982L 1.37092 3.31982L 0.436202 2.1297L 1.24629 1.00221L 1.74481 1.00221Z" transform="translate(28.8516 11.275)" fill="#939598"/>
</g>
<g id="Vector_12">
<path d="M 0.934718 2.44289C 0.249259 2.44289 4.75422e-07 2.06706 4.75422e-07 1.56595L 4.75422e-07 0.876934C 4.75422e-07 0.375829 0.249259 -2.38946e-07 0.934718 -2.38946e-07C 1.62018 -2.38946e-07 1.86944 0.375829 1.86944 0.876934L 1.86944 1.56595C 1.86944 2.06706 1.62018 2.44289 0.934718 2.44289ZM 0.934718 0.438468C 0.560831 0.438468 0.373887 0.626382 0.373887 0.939572L 0.373887 1.62859C 0.373887 1.94178 0.560831 2.1297 0.934718 2.1297C 1.30861 2.1297 1.49555 1.94178 1.49555 1.62859L 1.49555 0.939572C 1.49555 0.563743 1.30861 0.438468 0.934718 0.438468Z" transform="translate(30.9703 12.1519)" fill="#939598"/>
</g>
<g id="Vector_13">
<path d="M 0.0623155 1.69123C 0.0623155 1.25276 0.249257 0.939573 0.810088 0.939573C 0.997032 0.939573 1.3086 1.00221 1.43323 1.00221L 1.43323 0.0626384L 1.80712 0L 1.80712 3.31982L 1.49555 3.31982L 1.43323 3.13191C 1.24629 3.25718 0.997034 3.38246 0.685461 3.38246C 0.249259 3.38246 -4.75422e-07 3.13191 -4.75422e-07 2.69344L 0.0623155 1.69123ZM 1.43323 1.37804C 1.24629 1.3154 0.934717 1.3154 0.810088 1.3154C 0.56083 1.3154 0.436202 1.44068 0.436202 1.69123L 0.436202 2.6308C 0.436202 2.88136 0.498515 3.00663 0.810088 3.00663C 1.05935 3.00663 1.3086 2.88136 1.43323 2.75608L 1.43323 1.37804Z" transform="translate(34.4599 11.275)" fill="#939598"/>
</g>
<g id="Vector_14">
<path d="M 0.997033 0.438468C 0.810089 0.563744 0.560831 0.68902 0.373888 0.814297L 0.373888 2.38025L -9.50844e-07 2.38025L -9.50844e-07 0.0626382L 0.373888 0.0626382L 0.373888 0.375829C 0.560831 0.250553 0.747775 0.125276 0.997033 -2.38946e-07L 0.997033 0.438468Z" transform="translate(37.1394 12.1519)" fill="#939598"/>
</g>
<g id="Vector_15">
<path d="M 0.436201 0.0626384L 0.436201 1.81651C 0.436201 1.94178 0.498516 2.00442 0.68546 2.00442C 0.872404 2.00442 1.18397 1.87914 1.43323 1.75387L 1.43323 0L 1.80712 0L 1.80712 2.31761L 1.49555 2.31761L 1.43323 2.1297C 1.18397 2.25497 0.81009 2.38025 0.498517 2.38025C 0.12463 2.38025 9.50844e-07 2.1297 9.50844e-07 1.81651L 9.50844e-07 0.0626384L 0.436201 0.0626384Z" transform="translate(38.5726 12.2144)" fill="#939598"/>
</g>
<g id="Vector_16">
<path d="M 0.747774 3.25718C 0.498515 3.25718 0.186945 3.19455 9.50844e-07 3.13191L 0.0623145 2.81872C 0.249258 2.88136 0.498516 2.88136 0.68546 2.88136C 1.05935 2.88136 1.12166 2.81872 1.12166 2.56817C 1.12166 2.31761 1.12166 2.31761 0.623146 2.19234C 0.0623155 2.06706 9.50844e-07 1.94178 9.50844e-07 1.44068C 9.50844e-07 1.00221 0.186942 0.814296 0.810087 0.814296C 1.05935 0.814296 1.24629 0.814296 1.43323 0.876934L 1.43323 1.19013C 1.24629 1.12749 0.997031 1.12749 0.810087 1.12749C 0.498514 1.12749 0.436201 1.19013 0.436201 1.44068C 0.436201 1.69123 0.4362 1.75387 0.810087 1.81651C 1.49555 2.00442 1.49555 2.06706 1.49555 2.50553C 1.55787 3.06927 1.37092 3.25718 0.747774 3.25718ZM 1.43323 0.250553C 1.18397 0.375829 1.05935 0.501106 0.810087 0.68902C 0.560829 0.501106 0.373885 0.375829 0.186942 0.250553L 0.311574 2.38946e-07C 0.498517 0.125277 0.623144 0.187915 0.810087 0.313191C 0.934716 0.187915 1.05935 0.125277 1.30861 2.38946e-07L 1.43323 0.250553Z" transform="translate(41.0652 11.3375)" fill="#939598"/>
</g>
<g id="Vector_17">
<path d="M 1.49555 2.88136C 1.37092 2.94399 1.18398 2.94399 0.997032 2.94399C 0.623144 2.94399 0.4362 2.81872 0.4362 2.44289L 0.4362 0.939573L 0 0.939573L 0 0.626382L 0.4362 0.626382L 0.4362 0.0626386L 0.810091 2.38946e-07L 0.810091 0.626382L 1.43324 0.626382L 1.37092 0.939573L 0.747773 0.939573L 0.747773 2.38025C 0.747773 2.56816 0.747774 2.6308 0.997032 2.6308C 1.12166 2.6308 1.24629 2.6308 1.37092 2.56817L 1.49555 2.88136Z" transform="translate(42.997 11.6507)" fill="#939598"/>
</g>
<g id="Vector_18">
<path d="M 1.62018 0L 1.99406 0L 1.24629 2.31761L 0.747774 2.31761L 9.50844e-07 0L 0.373887 0L 0.997033 2.00442L 1.62018 0Z" transform="translate(44.8041 12.2144)" fill="#939598"/>
</g>
<g id="Vector_19">
<path d="M 0.934717 2.44289C 0.249257 2.44289 -9.50844e-07 2.06706 -9.50844e-07 1.56595L -9.50844e-07 0.876934C -9.50844e-07 0.375829 0.249257 -2.38946e-07 0.934717 -2.38946e-07C 1.62018 -2.38946e-07 1.86944 0.375829 1.86944 0.876934L 1.86944 1.56595C 1.86944 2.06706 1.62018 2.44289 0.934717 2.44289ZM 0.934717 0.375829C 0.56083 0.375829 0.373885 0.563743 0.373885 0.876934L 0.373885 1.56595C 0.373885 1.87915 0.56083 2.06706 0.934717 2.06706C 1.3086 2.06706 1.49555 1.87915 1.49555 1.56595L 1.49555 0.876934C 1.49555 0.563743 1.3086 0.375829 0.934717 0.375829Z" transform="translate(47.1097 12.1519)" fill="#939598"/>
</g>
<g id="Vector_20">
<path d="M 0.373887 3.75829L 9.50844e-07 3.75829L 1.12166 2.38946e-07L 1.49555 2.38946e-07L 0.373887 3.75829Z" transform="translate(49.4777 11.3375)" fill="#939598"/>
</g>
<g id="Vector_21">
<path d="M 0.373885 2.75608L 1.74481 2.75608L 1.74481 3.13191L -9.50844e-07 3.13191L -9.50844e-07 4.77891e-07L 0.373885 4.77891e-07L 0.373885 2.75608Z" transform="translate(51.7833 11.4002)" fill="#939598"/>
</g>
<g id="Vector_22">
<path d="M 1.68249 2.44289L 1.37092 2.44289L 1.37092 2.25497C 1.18398 2.38025 0.93472 2.44289 0.623147 2.44289C 0.186946 2.44289 1.90169e-06 2.19234 1.90169e-06 1.75387C 1.90169e-06 1.25276 0.249259 1.12749 0.685461 1.12749L 1.30861 1.12749L 1.30861 0.751658C 1.30861 0.438467 1.18398 0.375829 0.810088 0.375829C 0.56083 0.375829 0.311573 0.438467 0.124629 0.438467L 0.0623155 0.125276C 0.249259 0.0626382 0.56083 -4.77891e-07 0.810088 -4.77891e-07C 1.49555 -4.77891e-07 1.68249 0.250553 1.68249 0.751658L 1.68249 2.44289ZM 1.24629 1.50332L 0.685461 1.50332C 0.436203 1.50332 0.373888 1.56595 0.373888 1.81651C 0.373888 2.06706 0.436203 2.1297 0.685461 2.1297C 0.872405 2.1297 1.12166 2.06706 1.30861 1.94178L 1.24629 1.50332Z" transform="translate(54.0889 12.0892)" fill="#939598"/>
</g>
<g id="Vector_23">
<path d="M 2.11869 2.31761L 1.55786 0.375829L 0.997034 2.31761L 0.498516 2.31761L -1.90169e-06 0L 0.373889 0L 0.747775 1.94178L 1.30861 0L 1.80712 0L 2.36795 1.94178L 2.74184 0L 3.11573 0L 2.61721 2.31761L 2.11869 2.31761Z" transform="translate(56.2076 12.2144)" fill="#939598"/>
</g>
<g id="Vector_24">
<path d="M 1.43324 0.375829C 1.30861 0.375829 1.12166 0.31319 1.05935 0.31319C 0.810087 0.31319 0.747773 0.375829 0.747773 0.626381L 0.747773 1.00221L 1.37092 1.00221L 1.37092 1.37804L 0.747773 1.37804L 0.747773 3.38246L 0.373886 3.38246L 0.373886 1.37804L 0 1.37804L 0 1.06485L 0.373886 1.06485L 0.373886 0.626381C 0.373886 0.250552 0.623144 -4.77891e-07 0.997032 -4.77891e-07C 1.12166 -4.77891e-07 1.30861 -2.38012e-07 1.49555 0.0626379L 1.43324 0.375829Z" transform="translate(60.7567 11.1496)" fill="#939598"/>
</g>
<g id="Vector_25">
<path d="M 0 0.563743L 0 0L 0.373886 0L 0.373886 0.563743L 0 0.563743ZM 0 3.25719L 0 0.939573L 0.373886 0.939573L 0.373886 3.25719L 0 3.25719Z" transform="translate(62.6261 11.275)" fill="#939598"/>
</g>
<g id="Vector_26">
<path d="M 0.997032 0.438467C 0.810088 0.563744 0.56083 0.68902 0.373886 0.814297L 0.373886 2.38025L 0 2.38025L 0 0.0626379L 0.373886 0.0626379L 0.373886 0.375829C 0.56083 0.250552 0.747774 0.125276 0.997032 -4.77891e-07L 0.997032 0.438467Z" transform="translate(63.8724 12.0892)" fill="#939598"/>
</g>
<g id="Vector_27">
<path d="M 2.74184 2.25497L 2.74184 0.501105C 2.74184 0.375829 2.67953 0.313191 2.49258 0.313191C 2.30564 0.313191 1.99406 0.438467 1.74481 0.563744L 1.74481 2.31761L 1.37092 2.31761L 1.37092 0.563744C 1.37092 0.438467 1.3086 0.37583 1.12166 0.37583C 0.934716 0.37583 0.623145 0.501106 0.373887 0.626382L 0.373887 2.38025L 9.50844e-07 2.38025L 9.50844e-07 0.0626387L 0.311574 0.0626387L 0.373887 0.250553C 0.623145 0.125276 0.997033 2.38946e-07 1.30861 2.38946e-07C 1.55786 2.38946e-07 1.68249 0.0626382 1.74481 0.250553C 1.99406 0.125276 2.43027 2.38946e-07 2.67952 2.38946e-07C 3.05341 2.38946e-07 3.17804 0.250553 3.17804 0.563744L 3.17804 2.31761L 2.74184 2.25497Z" transform="translate(65.3679 12.277)" fill="#939598"/>
</g>
</g>
<g id="Group_5">
<g id="Vector_28">
<path d="M 0.0623141 1.69123C 0.0623141 1.25276 0.249258 0.939571 0.810089 0.939571C 0.997033 0.939571 1.30861 1.00221 1.43323 1.00221L 1.43323 0.0626401L 1.80712 -1.91157e-06L 1.80712 3.31982L 1.49555 3.31982L 1.43323 3.13191C 1.24629 3.25718 0.997032 3.38246 0.685459 3.38246C 0.249258 3.38246 4.75422e-07 3.13191 4.75422e-07 2.69344L 0.0623141 1.69123ZM 1.49555 1.37804C 1.30861 1.3154 0.997033 1.3154 0.872404 1.3154C 0.623146 1.3154 0.498516 1.44068 0.498516 1.69123L 0.498516 2.6308C 0.498516 2.88136 0.560831 3.00663 0.872404 3.00663C 1.12166 3.00663 1.37092 2.88136 1.49555 2.75608L 1.49555 1.37804Z" transform="translate(10.0949 55.8752)" fill="#939598"/>
</g>
<g id="Vector_29">
<path d="M 0 -9.55783e-07L 0.373887 -9.55783e-07L 0.373887 0.563744L 0 0.563744L 0 -9.55783e-07Z" transform="translate(12.7744 58.6294)" fill="#939598"/>
</g>
<g id="Vector_30">
<path d="M 0.934718 2.44289C 0.249259 2.44289 4.75422e-07 2.06706 4.75422e-07 1.56595L 4.75422e-07 0.876934C 4.75422e-07 0.375829 0.249259 -9.55783e-07 0.934718 -9.55783e-07C 1.62018 -9.55783e-07 1.86944 0.375829 1.86944 0.876934L 1.86944 1.56595C 1.86944 2.06706 1.62018 2.44289 0.934718 2.44289ZM 0.934718 0.375827C 0.560831 0.375827 0.373887 0.563744 0.373887 0.876934L 0.373887 1.56595C 0.373887 1.87914 0.560831 2.06706 0.934718 2.06706C 1.30861 2.06706 1.49555 1.87914 1.49555 1.56595L 1.49555 0.876934C 1.43323 0.563744 1.30861 0.375827 0.934718 0.375827Z" transform="translate(13.8337 56.7502)" fill="#939598"/>
</g>
<g id="Vector_31">
<path d="M 4.75422e-07 -9.55783e-07L 0.436202 -9.55783e-07L 0.436202 0.563744L 0.0623141 0.563744L 4.75422e-07 -9.55783e-07Z" transform="translate(16.3264 58.6294)" fill="#939598"/>
</g>
<g id="Vector_32">
<path d="M 0.934718 2.44289C 0.249258 2.44289 -2.37711e-07 2.06706 -2.37711e-07 1.56595L -2.37711e-07 0.876934C -2.37711e-07 0.375829 0.249258 -9.55783e-07 0.934718 -9.55783e-07C 1.62018 -9.55783e-07 1.86944 0.375829 1.86944 0.876934L 1.86944 1.56595C 1.86944 2.06706 1.62018 2.44289 0.934718 2.44289ZM 0.934718 0.375827C 0.560831 0.375827 0.373887 0.563744 0.373887 0.876934L 0.373887 1.56595C 0.373887 1.87914 0.560831 2.06706 0.934718 2.06706C 1.30861 2.06706 1.49555 1.87914 1.49555 1.56595L 1.49555 0.876934C 1.49555 0.563744 1.30861 0.375827 0.934718 0.375827Z" transform="translate(17.3857 56.7502)" fill="#939598"/>
</g>
<g id="Vector_33">
<path d="M 0.0623145 -9.55783e-07L 0.436201 -9.55783e-07L 0.436201 0.563744L -2.37711e-07 0.563744L 0.0623145 -9.55783e-07Z" transform="translate(19.8783 58.6294)" fill="#939598"/>
</g>
<g id="Vector_34">
<path d="M 0.373886 3.75829L 0 3.75829L 1.12166 1.91157e-06L 1.49555 1.91157e-06L 0.373886 3.75829Z" transform="translate(22.1216 55.9359)" fill="#939598"/>
</g>
<g id="Vector_35">
<path d="M -4.75422e-07 3.31982L -4.75422e-07 0.0626363L 0.373888 -9.55783e-07L 0.373888 3.31982L -4.75422e-07 3.31982Z" transform="translate(25.4243 55.8107)" fill="#939598"/>
</g>
<g id="Vector_36">
<path d="M 1.49555 2.88136C 1.37092 2.94399 1.18398 2.94399 0.997032 2.94399C 0.623145 2.94399 0.436203 2.81872 0.436203 2.44289L 0.436203 0.939574L 4.75422e-07 0.939574L 4.75422e-07 0.626384L 0.436203 0.626384L 0.436203 0.0626391L 0.810089 1.91157e-06L 0.810089 0.626384L 1.43323 0.626384L 1.37092 0.939574L 0.747775 0.939574L 0.747775 2.38025C 0.747775 2.56816 0.747774 2.6308 0.997032 2.6308C 1.12166 2.6308 1.24629 2.6308 1.37092 2.56817L 1.49555 2.88136Z" transform="translate(26.2967 56.2491)" fill="#939598"/>
</g>
<g id="Vector_37">
<path d="M 0.0623155 1.69123C 0.0623155 1.25276 0.249257 0.939571 0.810088 0.939571C 0.997032 0.939571 1.3086 0.939574 1.43323 1.00221L 1.43323 0.0626401L 1.80712 -1.91157e-06L 1.80712 3.31982L 1.49555 3.31982L 1.43323 3.13191C 1.24629 3.25718 0.997034 3.38246 0.685461 3.38246C 0.249259 3.38246 -4.75422e-07 3.13191 -4.75422e-07 2.69344L 0.0623155 1.69123ZM 1.49555 1.3154C 1.30861 1.25277 0.997033 1.25276 0.872404 1.25276C 0.623146 1.25276 0.498515 1.37804 0.498515 1.62859L 0.498515 2.56817C 0.498515 2.81872 0.560831 2.944 0.872404 2.944C 1.12166 2.944 1.37092 2.81872 1.49555 2.69344L 1.49555 1.3154Z" transform="translate(28.2284 55.8733)" fill="#939598"/>
</g>
<g id="Vector_38">
<path d="M -9.50844e-07 0L 0.436201 0L 0.436201 0.563745L 0.062315 0.563745L -9.50844e-07 0Z" transform="translate(30.908 58.5668)" fill="#939598"/>
</g>
<g id="Vector_39">
<path d="M 0.124628 0L 0.498517 0L 0.498517 0.563745L 0.186944 1.12749L 9.50844e-07 1.06485L 0.186944 0.563745L 0.0623145 0.563745L 0.124628 0Z" transform="translate(32.0296 58.5668)" fill="#939598"/>
</g>
<g id="Vector_40">
<path d="M 0.436203 2.81872L 2.11869 2.81872L 2.11869 3.19455L 4.75422e-07 3.19455L 4.75422e-07 2.81872L 1.62018 0.37583L 0.0623141 0.37583L 0.0623141 1.91157e-06L 2.11869 1.91157e-06L 2.11869 0.37583L 0.436203 2.81872Z" transform="translate(34.3975 55.9359)" fill="#939598"/>
</g>
<g id="Vector_41">
<path d="M 1.68249 2.44289L 1.37092 2.44289L 1.37092 2.25497C 1.18398 2.38025 0.934717 2.44289 0.623145 2.44289C 0.186943 2.44289 -9.50844e-07 2.19234 -9.50844e-07 1.75387C -9.50844e-07 1.25277 0.249259 1.12749 0.68546 1.12749L 1.30861 1.12749L 1.30861 0.751656C 1.30861 0.438465 1.18398 0.375828 0.81009 0.375828C 0.560832 0.375828 0.311572 0.438465 0.124629 0.438465L 0.062315 0.125274C 0.249259 0.0626363 0.560832 0 0.81009 0C 1.43324 0 1.68249 0.250551 1.68249 0.751656L 1.68249 2.44289ZM 1.30861 1.50332L 0.747774 1.50332C 0.498516 1.50332 0.436201 1.56596 0.436201 1.81651C 0.436201 2.06706 0.498516 2.1297 0.747774 2.1297C 0.934718 2.1297 1.18398 2.06706 1.37092 1.94178L 1.30861 1.50332Z" transform="translate(37.1394 56.6876)" fill="#939598"/>
</g>
<g id="Vector_42">
<path d="M 1.99407 0.375828L 1.74481 0.438465C 1.80712 0.563742 1.86944 0.689021 1.86944 0.876935L 1.86944 0.939573C 1.86944 1.44068 1.55786 1.75387 0.997031 1.75387C 0.934716 1.75387 0.810091 1.75387 0.747776 1.75387C 0.685462 1.81651 0.560831 1.87914 0.560831 2.00442C 0.560831 2.06706 0.623143 2.1297 0.685458 2.1297C 0.934716 2.1297 1.05935 2.19234 1.3086 2.19234C 1.74481 2.25497 1.86944 2.38025 1.86944 2.75608C 1.86944 3.25719 1.68249 3.4451 0.872404 3.4451C 0.68546 3.4451 0.311573 3.38246 0.062315 3.31982L 0.124629 3.00663C 0.373887 3.06927 0.68546 3.06927 0.872404 3.06927C 1.43323 3.06927 1.49555 3.00663 1.49555 2.75608C 1.49555 2.56817 1.43323 2.50553 1.18398 2.50553C 0.934718 2.50553 0.872404 2.44289 0.560831 2.44289C 0.249258 2.44289 0.124629 2.25497 0.124629 2.00442C 0.124629 1.8165 0.249257 1.69123 0.311572 1.56595C 0.124628 1.44068 -9.50844e-07 1.19013 -9.50844e-07 0.939573L -9.50844e-07 0.814298C -9.50844e-07 0.313193 0.249258 0 0.872404 0C 0.997033 0 1.12166 -9.56716e-07 1.24629 0.0626372L 1.93175 0.0626372L 1.93175 0.375828L 1.99407 0.375828ZM 0.934717 0.375828C 0.56083 0.375828 0.436201 0.501107 0.436201 0.814298L 0.436201 0.939573C 0.436201 1.3154 0.56083 1.37804 0.934717 1.37804C 1.3086 1.37804 1.43324 1.19013 1.43324 0.939573L 1.43324 0.814298C 1.49555 0.501107 1.37092 0.375828 0.934717 0.375828Z" transform="translate(39.3204 56.6876)" fill="#939598"/>
</g>
<g id="Vector_43">
<path d="M 0.997034 0.438465C 0.81009 0.563742 0.560832 0.689022 0.373888 0.814298L 0.373888 2.38025L 1.90169e-06 2.38025L 1.90169e-06 0.0626372L 0.373888 0.0626372L 0.373888 0.375828C 0.560832 0.250552 0.747775 0.125276 0.997034 0L 0.997034 0.438465Z" transform="translate(41.9376 56.6876)" fill="#939598"/>
</g>
<g id="Vector_44">
<path d="M 0.934718 2.06706C 1.18398 2.06706 1.43323 2.00442 1.68249 1.94178L 1.74481 2.25497C 1.55787 2.31761 1.24629 2.38025 0.934718 2.38025C 0.249258 2.38025 0 2.06706 0 1.56595L 0 0.876934C 0 0.375829 0.186945 -9.55783e-07 0.872405 -9.55783e-07C 1.55786 -9.55783e-07 1.74481 0.375829 1.74481 0.876934L 1.74481 1.37804L 0.373886 1.37804L 0.373886 1.56595C 0.373886 1.94178 0.498516 2.06706 0.934718 2.06706ZM 0.373886 1.00221L 1.37092 1.00221L 1.37092 0.814297C 1.37092 0.501106 1.24629 0.31319 0.872405 0.31319C 0.498517 0.31319 0.373886 0.501106 0.373886 0.814297L 0.373886 1.00221Z" transform="translate(43.3085 56.7502)" fill="#939598"/>
</g>
<g id="Vector_45">
<path d="M 1.80712 2.44289C 1.80712 2.94399 1.62018 3.31982 0.810087 3.31982C 0.623143 3.31982 0.249259 3.31983 9.50844e-07 3.25719L 9.50844e-07 0.0626363L 0.373887 -9.55783e-07L 0.373887 1.12749C 0.560831 1.06485 0.810087 0.939572 1.12166 0.939572C 1.62018 0.939572 1.80712 1.19012 1.80712 1.62859L 1.80712 2.44289ZM 0.373887 2.944C 0.498516 2.944 0.685458 3.00663 0.810087 3.00663C 1.24629 3.00663 1.37092 2.81872 1.37092 2.50553L 1.37092 1.62859C 1.37092 1.37804 1.24629 1.25276 0.997033 1.25276C 0.810089 1.25276 0.498516 1.37804 0.373887 1.44068L 0.373887 2.944Z" transform="translate(45.7388 55.8107)" fill="#939598"/>
</g>
</g>
<g id="Group_6">
<g id="Vector_46">
<path d="M 7.35312 7.7045C 7.16617 8.70671 6.79228 9.45837 6.10682 10.0221C 5.42136 10.5859 4.61128 10.8364 3.67656 10.899C 2.61721 10.899 1.68249 10.5232 0.997033 9.77156C 0.560831 9.33309 0.249259 8.76934 0.12463 8.08032C 0.062315 7.64186 0 6.76492 0 5.44952C 0 4.13412 0.062315 3.25719 0.12463 2.81872C 0.249259 2.19234 0.560831 1.62859 0.997033 1.12749C 1.74481 0.37583 2.61721 9.55783e-07 3.67656 9.55783e-07C 4.61128 9.55783e-07 5.42136 0.250553 6.10682 0.814297C 6.72997 1.37804 7.16617 2.1297 7.35312 3.13191L 6.16914 3.13191C 6.04451 2.50553 5.73294 1.94178 5.29674 1.56596C 4.86053 1.19013 4.2997 1.00221 3.67656 1.00221C 2.92878 1.00221 2.36795 1.25276 1.86944 1.75387C 1.55786 2.06706 1.37092 2.50553 1.24629 3.00663C 1.18398 3.4451 1.12166 4.2594 1.12166 5.38688C 1.12166 6.57701 1.18398 7.32867 1.24629 7.76713C 1.37092 8.26824 1.55786 8.64407 1.86944 9.0199C 2.36795 9.521 2.9911 9.77156 3.67656 9.77156C 4.2997 9.77156 4.86053 9.58364 5.29674 9.20781C 5.73294 8.83198 6.04451 8.26824 6.16914 7.64186L 7.35312 7.7045Z" transform="translate(9.97028 23.1136)" fill="#58595B"/>
</g>
<g id="Vector_47">
<path d="M 6.54303 10.5858L -4.75422e-07 10.5858L -4.75422e-07 4.77891e-07L 6.54303 4.77891e-07L 6.54303 1.00221L 1.12166 1.00221L 1.12166 4.7605L 5.73294 4.7605L 5.73294 5.76271L 1.12166 5.76271L 1.12166 9.58364L 6.54303 9.58364L 6.54303 10.5858Z" transform="translate(20.439 23.3015)" fill="#58595B"/>
</g>
<g id="Vector_48">
<path d="M 7.41543 10.5859L 6.10683 10.5859L 3.67656 5.88799L 1.12166 5.88799L 1.12166 10.5859L 9.50844e-07 10.5859L 9.50844e-07 -9.55783e-07L 4.05045 -9.55783e-07C 4.98516 -9.55783e-07 5.73294 0.250554 6.29377 0.814297C 6.8546 1.3154 7.16617 2.06706 7.16617 2.94399C 7.16617 3.69565 6.97923 4.32203 6.54303 4.82314C 6.10683 5.32424 5.54599 5.63744 4.86053 5.82535L 7.41543 10.5859ZM 6.04451 3.00663C 6.04451 2.38025 5.85757 1.87914 5.48368 1.56595C 5.10979 1.25276 4.61128 1.06485 3.92582 1.06485L 1.12166 1.06485L 1.12166 4.94842L 3.92582 4.94842C 4.54896 4.94842 5.04748 4.7605 5.48368 4.44731C 5.85757 4.07148 6.10682 3.63301 6.04451 3.00663Z" transform="translate(29.8486 23.2388)" fill="#58595B"/>
</g>
<g id="Vector_49">
<path d="M 1.12166 10.5859L 0 10.5859L 0 -9.55783e-07L 1.12166 -9.55783e-07L 1.12166 10.5859Z" transform="translate(40.1928 23.2388)" fill="#58595B"/>
</g>
<g id="Vector_50">
<path d="M 7.78932 10.5859L 6.72997 10.5859L 1.12166 2.06706L 1.12166 10.5859L -1.90169e-06 10.5859L -1.90169e-06 -9.55783e-07L 1.05935 -9.55783e-07L 6.66766 8.45615L 6.66766 -9.55783e-07L 7.78932 -9.55783e-07L 7.78932 10.5859Z" transform="translate(44.991 23.2388)" fill="#58595B"/>
</g>
</g>
<g id="Group_7">
<g id="Vector_51">
<path d="M 7.41543 3.19455C 7.41543 4.19676 7.10386 4.94842 6.48071 5.51216C 5.85757 6.0759 5.04748 6.38909 4.05045 6.38909L 1.18398 6.38909L 1.18398 10.899L 4.75422e-07 10.899L 4.75422e-07 4.77891e-07L 4.05045 4.77891e-07C 5.04748 4.77891e-07 5.85757 0.31319 6.48071 0.876933C 7.10386 1.44068 7.41543 2.19234 7.41543 3.19455ZM 6.29377 3.19455C 6.29377 2.50553 6.10682 1.94178 5.67062 1.56595C 5.23442 1.19012 4.67359 1.00221 3.98813 1.00221L 1.18398 1.00221L 1.18398 5.32424L 3.98813 5.32424C 4.67359 5.32424 5.23442 5.13633 5.67062 4.7605C 6.04451 4.44731 6.29377 3.88357 6.29377 3.19455Z" transform="translate(20.9999 39.9006)" fill="#58595B"/>
</g>
<g id="Vector_52">
<path d="M 8.97329 10.9617L 7.727 10.9617L 6.8546 8.51879L 2.11869 8.51879L 1.24629 10.9617L -9.50844e-07 10.9617L 3.98813 -9.55783e-07L 4.98516 -9.55783e-07L 8.97329 10.9617ZM 6.48071 7.45394L 4.42433 1.69123L 2.43027 7.45394L 6.48071 7.45394Z" transform="translate(29.9733 39.838)" fill="#58595B"/>
</g>
<g id="Vector_53">
<path d="M 7.66469 10.899L 6.29377 10.899L 3.80119 6.0759L 1.18397 6.0759L 1.18397 10.899L 1.90169e-06 10.899L 1.90169e-06 -9.55783e-07L 4.17507 -9.55783e-07C 5.10979 -9.55783e-07 5.91988 0.250554 6.48071 0.814297C 7.10386 1.37804 7.35311 2.06706 7.35311 3.00663C 7.35311 3.75829 7.16617 4.44731 6.72997 4.94842C 6.29377 5.44952 5.73294 5.82535 4.98517 5.95063L 7.66469 10.899ZM 6.29377 3.06927C 6.29377 2.44289 6.10683 1.94178 5.67062 1.56595C 5.29674 1.19012 4.73591 1.06485 4.11276 1.06485L 1.18397 1.06485L 1.18397 5.07369L 4.11276 5.07369C 4.79822 5.07369 5.29674 4.88578 5.67062 4.57259C 6.10683 4.19676 6.29377 3.69565 6.29377 3.06927Z" transform="translate(41.3145 39.838)" fill="#58595B"/>
</g>
<g id="Vector_54">
<path d="M 7.41543 1.06485L 4.29971 1.06485L 4.29971 10.9617L 3.11573 10.9617L 3.11573 1.06485L 9.50844e-07 1.06485L 9.50844e-07 0L 7.47775 0L 7.41543 1.06485Z" transform="translate(51.0355 39.7753)" fill="#58595B"/>
</g>
<g id="Vector_55">
<path d="M 8.10089 10.899L 6.97923 10.899L 1.18398 2.1297L 1.18398 10.899L -9.50844e-07 10.899L -9.50844e-07 -9.55783e-07L 1.12166 -9.55783e-07L 6.91691 8.70671L 6.91691 -9.55783e-07L 8.10089 -9.55783e-07L 8.10089 10.899Z" transform="translate(61.1305 39.838)" fill="#58595B"/>
</g>
<g id="Vector_56">
<path d="M 6.72997 10.899L 1.90169e-06 10.899L 1.90169e-06 0L 6.72997 0L 6.72997 1.06485L 1.12166 1.06485L 1.12166 4.88578L 5.85757 4.88578L 5.85757 5.95063L 1.12166 5.95063L 1.12166 9.89683L 6.72997 9.89683L 6.72997 10.899Z" transform="translate(73.0949 39.7753)" fill="#58595B"/>
</g>
<g id="Vector_57">
<path d="M 7.66469 10.899L 6.29377 10.899L 3.80119 6.0759L 1.18397 6.0759L 1.18397 10.899L 0 10.899L 0 0L 4.17507 0C 5.10979 0 5.91988 0.250555 6.48071 0.814298C 7.10385 1.37804 7.35312 2.06706 7.35312 3.00663C 7.35312 3.75829 7.16617 4.44731 6.72997 4.94842C 6.29377 5.44952 5.73294 5.82535 4.98516 5.95063L 7.66469 10.899ZM 6.23145 3.00663C 6.23145 2.38025 6.04451 1.87915 5.60831 1.50332C 5.23442 1.12749 4.67359 1.00221 4.05045 1.00221L 1.12166 1.00221L 1.12166 5.01105L 4.05045 5.01105C 4.73591 5.01105 5.23442 4.82314 5.60831 4.50995C 6.04451 4.19676 6.23145 3.69565 6.23145 3.00663Z" transform="translate(82.8782 39.7753)" fill="#58595B"/>
</g>
<g id="Vector_58">
<path d="M 1.18398 10.899L -1.90169e-06 10.899L -1.90169e-06 0L 1.18398 0L 1.18398 10.899Z" transform="translate(93.5964 39.7753)" fill="#58595B"/>
</g>
</g>
<g id="Group_8">
<g id="Vector_59">
<path d="M 8.9733 10.5859L 7.85163 10.5859L 7.85163 2.50553L 4.98516 8.89462L 4.05045 8.89462L 1.12166 2.50553L 1.12166 10.5859L 9.50844e-07 10.5859L 9.50844e-07 0L 1.12166 0L 4.54896 7.51658L 7.91395 0L 9.03561 0L 8.9733 10.5859Z" transform="translate(65.3679 23.1762)" fill="#58595B"/>
</g>
<g id="Vector_60">
<path d="M 8.66172 10.5859L 7.47775 10.5859L 6.60535 8.2056L 1.99406 8.2056L 1.18398 10.5859L 0 10.5859L 3.8635 0L 4.79822 0L 8.66172 10.5859ZM 6.29377 7.20339L 4.2997 1.62859L 2.30564 7.20339L 6.29377 7.20339Z" transform="translate(76.6469 23.1762)" fill="#58595B"/>
</g>
<g id="Vector_61">
<path d="M 7.41543 10.5859L 6.10683 10.5859L 3.67655 5.88799L 1.12166 5.88799L 1.12166 10.5859L 0 10.5859L 0 0L 4.05045 0C 4.98516 0 5.73294 0.250552 6.29377 0.814296C 6.8546 1.3154 7.16617 2.06706 7.16617 2.94399C 7.16617 3.69565 6.97923 4.32203 6.54303 4.82314C 6.10682 5.32424 5.546 5.63743 4.86054 5.82535L 7.41543 10.5859ZM 6.10683 2.94399C 6.10683 2.31761 5.91988 1.81651 5.54599 1.50332C 5.1721 1.19013 4.67359 1.00221 3.98813 1.00221L 1.18397 1.00221L 1.18397 4.88578L 3.98813 4.88578C 4.61127 4.88578 5.1721 4.69786 5.54599 4.38467C 5.91988 4.00884 6.10683 3.57038 6.10683 2.94399Z" transform="translate(87.5519 23.1762)" fill="#58595B"/>
</g>
</g>
<g id="Group_9">
<g id="Group_10">
<g id="Vector_62">
<path d="M 4.92285 -2.38946e-07L 2.9911 2.38025L 1.93175 2.38025L 4.75422e-07 -2.38946e-07L 1.05935 -2.38946e-07L 2.43027 1.62859L 3.80119 -2.38946e-07L 4.92285 -2.38946e-07Z" transform="translate(11.0296 19.9816)" fill="#58595B"/>
</g>
</g>
</g>
<g id="Group_11">
<g id="Vector_63">
<path d="M 0.498516 4.77891e-07L 4.75422e-07 1.62859L 1.05935 1.62859L 1.62018 4.77891e-07L 0.498516 4.77891e-07Z" transform="translate(14.1453 39.9006)" fill="#BE1E2D"/>
</g>
</g>
<g id="Group_12">
<g id="Vector_64">
<path d="M 3.48962 9.55783e-07L 1.90169e-06 10.7111L 1.05935 10.7111L 4.54896 9.55783e-07L 3.48962 9.55783e-07Z" transform="translate(56.8931 23.1136)" fill="#BE1E2D"/>
</g>
</g>
<g id="Group_13">
<g id="Vector_65">
<path d="M 2.67953 -9.55783e-07L -4.75422e-07 8.2056L 1.05935 8.2056L 3.73887 -9.55783e-07L 2.67953 -9.55783e-07Z" transform="translate(11.0919 42.6566)" fill="#BE1E2D"/>
</g>
</g>
</g>
</g>
</g>
</g>
</svg>

