<svg width="441" height="205" viewBox="0 0 441 205" version="1.1" xmlns="http://www.w3.org/2000/svg" xmlns:xlink="http://www.w3.org/1999/xlink">
<g id="Canvas" fill="none">
<g id="simple-logo">
<g id="Group">
<g id="Vector">
<path d="M 11.6393 11.601C 11.6393 14.179 10.0227 16.4348 5.81965 16.4348C 1.61657 16.4348 -2.46669e-06 14.179 -2.46669e-06 11.601L -2.46669e-06 4.83376C -2.46669e-06 2.25575 1.61657 -2.45858e-06 5.81965 -2.45858e-06C 10.0227 -2.45858e-06 11.6393 2.25575 11.6393 4.83376L 11.6393 11.601ZM 1.93988 11.601C 1.93988 13.5345 3.23314 14.8235 5.81965 14.8235C 8.40616 14.8235 9.69941 13.8568 9.69941 11.601L 9.69941 4.83376C 9.69941 2.90025 8.40616 1.61125 5.81965 1.61125C 3.23314 1.61125 1.93988 2.578 1.93988 4.83376L 1.93988 11.601Z" transform="translate(0.969971 1.61127)" fill="white"/>
</g>
<g id="Vector_2">
<path d="M 0 8.70077C 0 6.44501 0.969943 4.83376 3.87977 4.83376C 4.84971 4.83376 6.46627 5.15601 7.43621 5.15601L 7.43621 0.322253L 9.37609 1.22929e-06L 9.37609 17.0793L 7.75953 17.0793L 7.43621 15.7903C 6.46627 16.4348 5.17302 17.0793 3.55645 17.0793C 1.29326 17.0793 0 15.7903 0 13.5345L 0 8.70077ZM 7.1129 6.76727C 6.14296 6.44502 4.52639 6.44502 3.87977 6.44502C 2.58651 6.44502 1.93988 7.08952 1.93988 8.37852L 1.93988 13.2123C 1.93988 14.5013 2.2632 15.1458 3.87977 15.1458C 5.17302 15.1458 6.46628 14.5013 7.1129 13.8568L 7.1129 6.76727Z" transform="translate(16.1656 0.966705)" fill="white"/>
</g>
<g id="Vector_3">
<path d="M 8.40616 1.22929e-06L 10.346 1.22929e-06L 6.46627 11.9233L 3.87976 11.9233L 1.23334e-06 1.22929e-06L 1.93988 1.22929e-06L 5.17302 10.312L 8.40616 1.22929e-06Z" transform="translate(27.805 5.80045)" fill="white"/>
</g>
<g id="Vector_4">
<path d="M 3.87977 4.83376L 3.87977 17.4015C 3.87977 19.0128 3.55645 19.335 0.969938 21.5908L 0 20.3018C 1.93988 18.6905 1.93988 18.3683 1.93988 17.4015L 1.93988 4.83376L 3.87977 4.83376ZM 1.93988 2.90026L 1.93988 1.22929e-06L 3.87977 1.22929e-06L 3.87977 2.90026L 1.93988 2.90026Z" transform="translate(38.7975 0.966705)" fill="white"/>
</g>
<g id="Vector_5">
<path d="M 4.8497 10.6343C 6.14296 10.6343 7.43621 10.312 8.72947 9.98977L 9.05278 11.601C 8.08284 11.9233 6.46627 12.2455 4.8497 12.2455C 1.29325 12.2455 -2.46669e-06 10.6343 -2.46669e-06 8.05627L -2.46669e-06 4.51151C -2.46669e-06 1.9335 0.969943 0 4.52639 0C 8.08284 0 9.05278 1.9335 9.05278 4.51151L 9.05278 7.08952L 1.93988 7.08952L 1.93988 8.05627C 1.93988 9.98977 2.58651 10.6343 4.8497 10.6343ZM 1.93988 5.47827L 7.1129 5.47827L 7.1129 4.51151C 7.1129 2.90026 6.46628 1.93351 4.52639 1.93351C 2.58651 1.93351 1.93988 2.90026 1.93988 4.51151L 1.93988 5.47827Z" transform="translate(46.2338 5.4783)" fill="white"/>
</g>
<g id="Vector_6">
<path d="M 7.43621 14.8235C 6.78958 15.1458 5.81964 15.1458 4.8497 15.1458C 2.90982 15.1458 1.93989 14.5013 1.93989 12.5678L 1.93989 4.83376L -2.46669e-06 4.83376L -2.46669e-06 3.22251L 1.93989 3.22251L 1.93989 0.322253L 3.87976 1.22929e-06L 3.87976 3.22251L 7.1129 3.22251L 7.1129 5.15601L 3.87976 5.15601L 3.87976 12.5678C 3.87976 13.5345 3.87977 13.8568 5.17302 13.8568C 5.81965 13.8568 6.46627 13.8568 7.1129 13.5345L 7.43621 14.8235Z" transform="translate(57.5498 2.57797)" fill="white"/>
</g>
<g id="Vector_7">
<path d="M 7.1129 11.9233L 7.1129 2.90026C 7.1129 2.25576 6.78959 1.93351 5.81965 1.93351C 4.84971 1.93351 3.23314 2.57801 1.93988 3.22251L 1.93988 12.2455L -4.93337e-06 12.2455L -4.93337e-06 0.322253L 1.61656 0.322253L 1.93988 1.289C 3.23314 0.644502 5.17302 1.22929e-06 6.78959 1.22929e-06C 8.72947 1.22929e-06 9.3761 1.289 9.3761 2.90026L 9.3761 11.9233L 7.1129 11.9233Z" transform="translate(68.2191 5.80045)" fill="white"/>
</g>
<g id="Vector_8">
<path d="M 2.46669e-06 2.90026L 2.46669e-06 1.22929e-06L 1.93988 1.22929e-06L 1.93988 2.90026L 2.46669e-06 2.90026ZM 2.46669e-06 16.757L 2.46669e-06 4.83376L 1.93988 4.83376L 1.93988 16.757L 2.46669e-06 16.757Z" transform="translate(81.4751 0.966705)" fill="white"/>
</g>
<g id="Vector_9">
<path d="M 4.93337e-06 12.5678L 4.93337e-06 8.70077C 4.93337e-06 6.12276 0.969946 4.51151 4.84971 4.51151C 5.81965 4.51151 7.1129 4.83376 7.75952 4.83376L 7.43622 6.44502C 6.46627 6.12277 5.49634 6.12276 4.84971 6.12276C 2.90983 6.12276 2.26319 6.76726 2.26319 8.70077L 2.26319 12.5678C 2.26319 14.5013 2.90983 15.1458 4.84971 15.1458C 5.81965 15.1458 6.46627 15.1458 7.43622 14.8235L 7.75952 16.4348C 7.1129 16.757 5.81965 16.757 4.84971 16.757C 0.646632 17.0793 4.93337e-06 15.468 4.93337e-06 12.5678ZM 7.43622 1.289C 6.14296 1.9335 5.49633 2.57801 4.20308 3.54476C 2.90983 2.57801 1.93988 1.9335 0.969943 1.289L 1.61657 1.22929e-06C 2.58651 0.644503 3.23314 0.966753 4.20308 1.61126C 4.84971 0.966753 5.49633 0.644503 6.78959 1.22929e-06L 7.43622 1.289Z" transform="translate(86.9713 0.966705)" fill="white"/>
</g>
<g id="Vector_10">
<path d="M -2.46669e-06 17.0793L -2.46669e-06 0.322252L 1.93989 0L 1.93989 17.0793L -2.46669e-06 17.0793ZM 9.05278 5.15601L 4.8497 10.9565L 9.3761 17.0793L 7.1129 17.0793L 2.2632 10.9565L 6.46627 5.15601L 9.05278 5.15601Z" transform="translate(97.9639 0.644531)" fill="white"/>
</g>
<g id="Vector_11">
<path d="M 4.84971 12.5678C 1.29326 12.5678 2.46669e-06 10.6343 2.46669e-06 8.05627L 2.46669e-06 4.51151C 2.46669e-06 1.9335 1.29326 -1.22929e-06 4.84971 -1.22929e-06C 8.40616 -1.22929e-06 9.69941 1.9335 9.69941 4.51151L 9.69941 8.05627C 9.69941 10.6343 8.40616 12.5678 4.84971 12.5678ZM 4.84971 2.25576C 2.90982 2.25576 1.93988 3.22251 1.93988 4.83376L 1.93988 8.37852C 1.93988 9.98977 2.90982 10.9565 4.84971 10.9565C 6.78959 10.9565 7.75952 9.98977 7.75952 8.37852L 7.75952 4.83376C 7.75952 2.90026 6.78959 2.25576 4.84971 2.25576Z" transform="translate(108.957 5.15613)" fill="white"/>
</g>
<g id="Vector_12">
<path d="M 0.323319 8.70077C 0.323319 6.44502 1.29325 4.83376 4.20307 4.83376C 5.17301 4.83376 6.78958 5.15601 7.43621 5.15601L 7.43621 0.322252L 9.3761 0L 9.3761 17.0793L 7.75953 17.0793L 7.43621 16.1125C 6.46627 16.757 5.17302 17.4015 3.55646 17.4015C 1.29326 17.4015 -2.46669e-06 16.1125 -2.46669e-06 13.8568L 0.323319 8.70077ZM 7.43621 7.08952C 6.46627 6.76727 4.8497 6.76727 4.20307 6.76727C 2.90982 6.76727 2.2632 7.41177 2.2632 8.70077L 2.2632 13.5345C 2.2632 14.8235 2.5865 15.468 4.20307 15.468C 5.49633 15.468 6.78958 14.8235 7.43621 14.179L 7.43621 7.08952Z" transform="translate(127.062 0.644531)" fill="white"/>
</g>
<g id="Vector_13">
<path d="M 5.17302 2.25576C 4.20308 2.90026 2.90983 3.54476 1.93988 4.18926L 1.93988 12.2455L -4.93337e-06 12.2455L -4.93337e-06 0.322251L 1.93988 0.322251L 1.93988 1.9335C 2.90983 1.289 3.87977 0.6445 5.17302 -1.22929e-06L 5.17302 2.25576Z" transform="translate(140.965 5.15613)" fill="white"/>
</g>
<g id="Vector_14">
<path d="M 2.26319 0.322252L 2.26319 9.34527C 2.26319 9.98977 2.58651 10.312 3.55645 10.312C 4.52639 10.312 6.14295 9.66752 7.4362 9.02302L 7.4362 0L 9.37611 0L 9.37611 11.9233L 7.75954 11.9233L 7.4362 10.9565C 6.14295 11.601 4.20308 12.2455 2.58651 12.2455C 0.64663 12.2455 4.93337e-06 10.9565 4.93337e-06 9.34527L 4.93337e-06 0.322252L 2.26319 0.322252Z" transform="translate(148.401 5.4783)" fill="white"/>
</g>
<g id="Vector_15">
<path d="M 3.87976 16.757C 2.5865 16.757 0.969946 16.4348 4.93337e-06 16.1125L 0.323314 14.5013C 1.29325 14.8235 2.58651 14.8235 3.55645 14.8235C 5.49633 14.8235 5.81964 14.5013 5.81964 13.2123C 5.81964 11.9233 5.81965 11.9233 3.23314 11.2788C 0.323319 10.6343 4.93337e-06 9.98977 4.93337e-06 7.41177C 4.93337e-06 5.15601 0.969931 4.18926 4.20307 4.18926C 5.49632 4.18926 6.46626 4.18926 7.4362 4.51151L 7.4362 6.12276C 6.46626 5.80051 5.17301 5.80051 4.20307 5.80051C 2.5865 5.80051 2.26319 6.12276 2.26319 7.41177C 2.26319 8.70077 2.26319 9.02302 4.20307 9.34527C 7.75952 10.312 7.75954 10.6343 7.75954 12.89C 8.08285 15.7903 7.1129 16.757 3.87976 16.757ZM 7.4362 1.289C 6.14295 1.9335 5.49632 2.57801 4.20307 3.54476C 2.90981 2.57801 1.93987 1.9335 0.969931 1.289L 1.61657 1.22929e-06C 2.58651 0.644503 3.23313 0.966753 4.20307 1.61125C 4.84969 0.966753 5.49633 0.644503 6.78959 1.22929e-06L 7.4362 1.289Z" transform="translate(161.333 0.966705)" fill="white"/>
</g>
<g id="Vector_16">
<path d="M 7.75953 14.8235C 7.11291 15.1458 6.14295 15.1458 5.17301 15.1458C 3.23313 15.1458 2.26319 14.5013 2.26319 12.5678L 2.26319 4.83376L 0 4.83376L 0 3.22251L 2.26319 3.22251L 2.26319 0.322253L 4.20309 1.22929e-06L 4.20309 3.22251L 7.43622 3.22251L 7.11289 4.83376L 3.87975 4.83376L 3.87975 12.2455C 3.87975 13.2123 3.87976 13.5345 5.17301 13.5345C 5.81964 13.5345 6.46626 13.5345 7.11289 13.2123L 7.75953 14.8235Z" transform="translate(171.356 2.57797)" fill="white"/>
</g>
<g id="Vector_17">
<path d="M 8.40615 0L 10.346 0L 6.46628 11.9233L 3.87976 11.9233L 4.93337e-06 0L 1.93988 0L 5.17302 10.312L 8.40615 0Z" transform="translate(180.732 5.4783)" fill="white"/>
</g>
<g id="Vector_18">
<path d="M 4.8497 12.5678C 1.29325 12.5678 -4.93337e-06 10.6343 -4.93337e-06 8.05627L -4.93337e-06 4.51151C -4.93337e-06 1.9335 1.29325 -1.22929e-06 4.8497 -1.22929e-06C 8.40615 -1.22929e-06 9.6994 1.9335 9.6994 4.51151L 9.6994 8.05627C 9.6994 10.6343 8.40615 12.5678 4.8497 12.5678ZM 4.8497 1.9335C 2.90982 1.9335 1.93987 2.90025 1.93987 4.51151L 1.93987 8.05627C 1.93987 9.66752 2.90982 10.6343 4.8497 10.6343C 6.78958 10.6343 7.75953 9.66752 7.75953 8.05627L 7.75953 4.51151C 7.75953 2.90025 6.78958 1.9335 4.8497 1.9335Z" transform="translate(192.695 5.15613)" fill="white"/>
</g>
<g id="Vector_19">
<path d="M 1.93988 19.335L 4.93337e-06 19.335L 5.81964 1.22929e-06L 7.75954 1.22929e-06L 1.93988 19.335Z" transform="translate(204.981 0.966705)" fill="white"/>
</g>
<g id="Vector_20">
<path d="M 1.93987 14.179L 9.05279 14.179L 9.05279 16.1125L -4.93337e-06 16.1125L -4.93337e-06 2.45858e-06L 1.93987 2.45858e-06L 1.93987 14.179Z" transform="translate(216.943 1.28909)" fill="white"/>
</g>
<g id="Vector_21">
<path d="M 8.72947 12.5678L 7.1129 12.5678L 7.1129 11.601C 6.14296 12.2455 4.84971 12.5678 3.23315 12.5678C 0.969951 12.5678 9.86675e-06 11.2788 9.86675e-06 9.02302C 9.86675e-06 6.44502 1.29326 5.80052 3.55646 5.80052L 6.78959 5.80052L 6.78959 3.86701C 6.78959 2.25576 6.14295 1.9335 4.20307 1.9335C 2.90982 1.9335 1.61657 2.25576 0.646627 2.25576L 0.323319 0.644502C 1.29326 0.322251 2.90982 -2.45858e-06 4.20307 -2.45858e-06C 7.75952 -2.45858e-06 8.72947 1.289 8.72947 3.86701L 8.72947 12.5678ZM 6.46628 7.73402L 3.55646 7.73402C 2.2632 7.73402 1.93989 8.05627 1.93989 9.34528C 1.93989 10.6343 2.2632 10.9565 3.55646 10.9565C 4.5264 10.9565 5.81965 10.6343 6.78959 9.98977L 6.46628 7.73402Z" transform="translate(228.906 4.83377)" fill="white"/>
</g>
<g id="Vector_22">
<path d="M 10.9927 11.9233L 8.08283 1.93351L 5.17303 11.9233L 2.58651 11.9233L -9.86675e-06 0L 1.93989 0L 3.87977 9.98978L 6.7896 0L 9.37609 0L 12.2859 9.98978L 14.2258 0L 16.1657 0L 13.5792 11.9233L 10.9927 11.9233Z" transform="translate(239.899 5.4783)" fill="white"/>
</g>
<g id="Vector_23">
<path d="M 7.43622 1.9335C 6.7896 1.9335 5.81964 1.61125 5.49632 1.61125C 4.20307 1.61125 3.87975 1.9335 3.87975 3.22251L 3.87975 5.15601L 7.11289 5.15601L 7.11289 7.08952L 3.87975 7.08952L 3.87975 17.4015L 1.93988 17.4015L 1.93988 7.08952L 0 7.08952L 0 5.47826L 1.93988 5.47826L 1.93988 3.22251C 1.93988 1.289 3.23313 -2.45858e-06 5.17301 -2.45858e-06C 5.81964 -2.45858e-06 6.78959 -1.22449e-06 7.75953 0.32225L 7.43622 1.9335Z" transform="translate(263.501 0)" fill="white"/>
</g>
<g id="Vector_24">
<path d="M 0 2.90026L 0 0L 1.93988 0L 1.93988 2.90026L 0 2.90026ZM 0 16.757L 0 4.83376L 1.93988 4.83376L 1.93988 16.757L 0 16.757Z" transform="translate(273.2 0.644531)" fill="white"/>
</g>
<g id="Vector_25">
<path d="M 5.17301 2.25576C 4.20307 2.90026 2.90982 3.54476 1.93988 4.18926L 1.93988 12.2455L 0 12.2455L 0 0.32225L 1.93988 0.32225L 1.93988 1.9335C 2.90982 1.289 3.87976 0.644499 5.17301 -2.45858e-06L 5.17301 2.25576Z" transform="translate(279.666 4.83377)" fill="white"/>
</g>
<g id="Vector_26">
<path d="M 14.2258 11.601L 14.2258 2.578C 14.2258 1.9335 13.9025 1.61125 12.9325 1.61125C 11.9626 1.61125 10.346 2.25576 9.05277 2.90026L 9.05277 11.9233L 7.11289 11.9233L 7.11289 2.90026C 7.11289 2.25576 6.78958 1.93351 5.81964 1.93351C 4.84969 1.93351 3.23314 2.57801 1.93988 3.22251L 1.93988 12.2455L 4.93337e-06 12.2455L 4.93337e-06 0.322253L 1.61657 0.322253L 1.93988 1.289C 3.23314 0.644502 5.17302 1.22929e-06 6.78959 1.22929e-06C 8.08284 1.22929e-06 8.72946 0.322251 9.05277 1.289C 10.346 0.644502 12.6092 1.22929e-06 13.9025 1.22929e-06C 15.8424 1.22929e-06 16.489 1.289 16.489 2.90026L 16.489 11.9233L 14.2258 11.601Z" transform="translate(287.426 5.80045)" fill="white"/>
</g>
</g>
<g id="Group_2">
<g id="Vector_27">
<path d="M 38.151 39.6368C 37.1811 44.7929 35.2412 48.6599 31.6847 51.5601C 28.1283 54.4604 23.9252 55.7494 19.0755 56.0716C 13.5792 56.0716 8.72947 54.1381 5.17302 50.2711C 2.90982 48.0154 1.29326 45.1151 0.64663 41.5703C 0.323316 39.3146 0 34.8031 0 28.0358C 0 21.2685 0.323316 16.757 0.64663 14.5013C 1.29326 11.2788 2.90982 8.37852 5.17302 5.80052C 9.05278 1.93351 13.5792 4.91716e-06 19.0755 4.91716e-06C 23.9252 4.91716e-06 28.1283 1.28901 31.6847 4.18926C 34.9179 7.08952 37.1811 10.9565 38.151 16.1125L 32.008 16.1125C 31.3614 12.89 29.7449 9.98978 27.4817 8.05627C 25.2185 6.12277 22.3086 5.15601 19.0755 5.15601C 15.1957 5.15601 12.2859 6.44502 9.69941 9.02302C 8.08284 10.6343 7.1129 12.89 6.46627 15.468C 6.14296 17.7238 5.81964 21.9131 5.81964 27.7136C 5.81964 33.8363 6.14296 37.7033 6.46627 39.9591C 7.1129 42.5371 8.08284 44.4706 9.69941 46.4041C 12.2859 48.9821 15.5191 50.2711 19.0755 50.2711C 22.3086 50.2711 25.2185 49.3044 27.4817 47.3709C 29.7449 45.4374 31.3614 42.5371 32.008 39.3146L 38.151 39.6368Z" transform="translate(-6.10352e-05 61.55)" fill="white"/>
</g>
<g id="Vector_28">
<path d="M 33.9479 54.4604L -2.46669e-06 54.4604L -2.46669e-06 2.45858e-06L 33.9479 2.45858e-06L 33.9479 5.15601L 5.81964 5.15601L 5.81964 24.4911L 29.7449 24.4911L 29.7449 29.6471L 5.81964 29.6471L 5.81964 49.3044L 33.9479 49.3044L 33.9479 54.4604Z" transform="translate(54.3164 62.5167)" fill="white"/>
</g>
<g id="Vector_29">
<path d="M 38.4743 54.4604L 31.6847 54.4604L 19.0755 30.2916L 5.81965 30.2916L 5.81965 54.4604L 4.93337e-06 54.4604L 4.93337e-06 -4.91716e-06L 21.0154 -4.91716e-06C 25.8651 -4.91716e-06 29.7449 1.28901 32.6547 4.18926C 35.5645 6.76727 37.1811 10.6343 37.1811 15.1458C 37.1811 19.0128 36.2111 22.2353 33.9479 24.8133C 31.6847 27.3913 28.7749 29.0026 25.2185 29.9693L 38.4743 54.4604ZM 31.3614 15.468C 31.3614 12.2455 30.3915 9.66752 28.4516 8.05626C 26.5117 6.44501 23.9252 5.47826 20.3688 5.47826L 5.81965 5.47826L 5.81965 25.4578L 20.3688 25.4578C 23.6019 25.4578 26.1884 24.4911 28.4516 22.8798C 30.3915 20.9463 31.6847 18.6905 31.3614 15.468Z" transform="translate(103.137 62.1945)" fill="white"/>
</g>
<g id="Vector_30">
<path d="M 5.81965 54.4604L 0 54.4604L 0 -4.91716e-06L 5.81965 -4.91716e-06L 5.81965 54.4604Z" transform="translate(156.807 62.1945)" fill="white"/>
</g>
<g id="Vector_31">
<path d="M 40.4142 54.4604L 34.9179 54.4604L 5.81965 10.6343L 5.81965 54.4604L -9.86675e-06 54.4604L -9.86675e-06 -4.91716e-06L 5.49634 -4.91716e-06L 34.5946 43.5038L 34.5946 -4.91716e-06L 40.4142 -4.91716e-06L 40.4142 54.4604Z" transform="translate(181.702 62.1945)" fill="white"/>
</g>
</g>
<g id="Group_3">
<g id="Vector_32">
<path d="M 38.4743 16.4348C 38.4743 21.5908 36.8577 25.4578 33.6246 28.3581C 30.3915 31.2583 26.1884 32.8696 21.0154 32.8696L 6.14295 32.8696L 6.14295 56.0716L 2.46669e-06 56.0716L 2.46669e-06 2.45858e-06L 21.0154 2.45858e-06C 26.1884 2.45858e-06 30.3915 1.61125 33.6246 4.51151C 36.8577 7.41176 38.4743 11.2788 38.4743 16.4348ZM 32.6547 16.4348C 32.6547 12.89 31.6847 9.98976 29.4215 8.05626C 27.1583 6.12275 24.2485 5.15602 20.6921 5.15602L 6.14295 5.15602L 6.14295 27.3913L 20.6921 27.3913C 24.2485 27.3913 27.1583 26.4246 29.4215 24.4911C 31.3614 22.8798 32.6547 19.9796 32.6547 16.4348Z" transform="translate(57.2264 147.913)" fill="white"/>
</g>
<g id="Vector_33">
<path d="M 46.5572 56.3939L 40.0909 56.3939L 35.5645 43.8261L 10.9927 43.8261L 6.46627 56.3939L -4.93337e-06 56.3939L 20.6921 -4.91716e-06L 25.8651 -4.91716e-06L 46.5572 56.3939ZM 33.6246 38.3478L 22.9553 8.70078L 12.6092 38.3478L 33.6246 38.3478Z" transform="translate(103.784 147.591)" fill="white"/>
</g>
<g id="Vector_34">
<path d="M 39.7676 56.0716L 32.6547 56.0716L 19.7221 31.2583L 6.14295 31.2583L 6.14295 56.0716L 9.86675e-06 56.0716L 9.86675e-06 -4.91716e-06L 21.662 -4.91716e-06C 26.5117 -4.91716e-06 30.7148 1.28901 33.6246 4.18926C 36.8577 7.08952 38.151 10.6343 38.151 15.468C 38.151 19.3351 37.1811 22.8798 34.9179 25.4578C 32.6547 28.0358 29.7449 29.9693 25.8651 30.6138L 39.7676 56.0716ZM 32.6547 15.7903C 32.6547 12.5678 31.6847 9.98977 29.4215 8.05626C 27.4817 6.12276 24.5718 5.47827 21.3387 5.47827L 6.14295 5.47827L 6.14295 26.1023L 21.3387 26.1023C 24.8952 26.1023 27.4817 25.1356 29.4215 23.5243C 31.6847 21.5908 32.6547 19.0128 32.6547 15.7903Z" transform="translate(162.627 147.591)" fill="white"/>
</g>
<g id="Vector_35">
<path d="M 38.4743 5.47825L 22.3086 5.47825L 22.3086 56.3939L 16.1657 56.3939L 16.1657 5.47825L 4.93337e-06 5.47825L 4.93337e-06 0L 38.7976 0L 38.4743 5.47825Z" transform="translate(213.064 147.269)" fill="white"/>
</g>
<g id="Vector_36">
<path d="M 42.0308 56.0716L 36.2111 56.0716L 6.14296 10.9565L 6.14296 56.0716L -4.93338e-06 56.0716L -4.93338e-06 -4.91716e-06L 5.81965 -4.91716e-06L 35.8878 44.7929L 35.8878 -4.91716e-06L 42.0308 -4.91716e-06L 42.0308 56.0716Z" transform="translate(265.44 147.591)" fill="white"/>
</g>
<g id="Vector_37">
<path d="M 34.9179 56.0716L 9.86675e-06 56.0716L 9.86675e-06 0L 34.9179 0L 34.9179 5.47825L 5.81964 5.47825L 5.81964 25.1356L 30.3915 25.1356L 30.3915 30.6138L 5.81964 30.6138L 5.81964 50.9156L 34.9179 50.9156L 34.9179 56.0716Z" transform="translate(327.517 147.269)" fill="white"/>
</g>
<g id="Vector_38">
<path d="M 39.7676 56.0716L 32.6547 56.0716L 19.7222 31.2583L 6.14294 31.2583L 6.14294 56.0716L 0 56.0716L 0 0L 21.662 0C 26.5117 0 30.7148 1.28901 33.6246 4.18927C 36.8577 7.08953 38.151 10.6343 38.151 15.468C 38.151 19.3351 37.1811 22.8798 34.9179 25.4578C 32.6547 28.0358 29.7449 29.9693 25.8651 30.6138L 39.7676 56.0716ZM 32.3314 15.468C 32.3314 12.2455 31.3614 9.66753 29.0982 7.73402C 27.1583 5.80052 24.2485 5.15601 21.0154 5.15601L 5.81966 5.15601L 5.81966 25.7801L 21.0154 25.7801C 24.5718 25.7801 27.1583 24.8133 29.0982 23.202C 31.3614 21.5908 32.3314 19.0128 32.3314 15.468Z" transform="translate(378.277 147.269)" fill="white"/>
</g>
<g id="Vector_39">
<path d="M 6.14298 56.0716L -9.86675e-06 56.0716L -9.86675e-06 0L 6.14298 0L 6.14298 56.0716Z" transform="translate(433.887 147.269)" fill="white"/>
</g>
</g>
<g id="Group_4">
<g id="Vector_40">
<path d="M 46.5572 54.4604L 40.7375 54.4604L 40.7375 12.89L 25.8651 45.7596L 21.0154 45.7596L 5.81964 12.89L 5.81964 54.4604L 4.93337e-06 54.4604L 4.93337e-06 0L 5.81964 0L 23.6019 38.6701L 41.0608 0L 46.8805 0L 46.5572 54.4604Z" transform="translate(287.426 61.8721)" fill="white"/>
</g>
<g id="Vector_41">
<path d="M 44.9406 54.4604L 38.7976 54.4604L 34.2713 42.2148L 10.346 42.2148L 6.14296 54.4604L 0 54.4604L 20.0454 0L 24.8951 0L 44.9406 54.4604ZM 32.6547 37.0588L 22.3086 8.37852L 11.9626 37.0588L 32.6547 37.0588Z" transform="translate(345.946 61.8721)" fill="white"/>
</g>
<g id="Vector_42">
<path d="M 38.4743 54.4604L 31.6847 54.4604L 19.0755 30.2916L 5.81965 30.2916L 5.81965 54.4604L 0 54.4604L 0 0L 21.0154 0C 25.8651 0 29.7449 1.289 32.6547 4.18926C 35.5645 6.76726 37.1811 10.6343 37.1811 15.1458C 37.1811 19.0128 36.2111 22.2353 33.9479 24.8133C 31.6847 27.3913 28.7749 29.0026 25.2185 29.9693L 38.4743 54.4604ZM 31.6847 15.1458C 31.6847 11.9233 30.7148 9.34528 28.7749 7.73402C 26.835 6.12277 24.2485 5.15601 20.6921 5.15601L 6.14294 5.15601L 6.14294 25.1356L 20.6921 25.1356C 23.9252 25.1356 26.835 24.1688 28.7749 22.5576C 30.7148 20.624 31.6847 18.3683 31.6847 15.1458Z" transform="translate(402.526 61.8721)" fill="white"/>
</g>
</g>
<g id="Group_5">
<g id="Group_6">
<g id="Vector_43">
<path d="M 25.5418 -1.22929e-06L 15.5191 12.2455L 10.0227 12.2455L 2.46669e-06 -1.22929e-06L 5.49633 -1.22929e-06L 12.6092 8.37852L 19.7221 -1.22929e-06L 25.5418 -1.22929e-06Z" transform="translate(5.49631 45.4375)" fill="white"/>
</g>
</g>
</g>
<g id="Group_7">
<g id="Vector_44">
<path d="M 2.58651 2.45858e-06L 2.46669e-06 8.37853L 5.49633 8.37853L 8.40615 2.45858e-06L 2.58651 2.45858e-06Z" transform="translate(21.662 147.913)" fill="#BE1E2D"/>
</g>
</g>
<g id="Group_8">
<g id="Vector_45">
<path d="M 18.1056 4.91716e-06L 9.86675e-06 55.1049L 5.49633 55.1049L 23.6019 4.91716e-06L 18.1056 4.91716e-06Z" transform="translate(243.455 61.55)" fill="#BE1E2D"/>
</g>
</g>
<g id="Group_9">
<g id="Vector_46">
<path d="M 13.9025 -4.91716e-06L -2.46669e-06 42.2148L 5.49633 42.2148L 19.3988 -4.91716e-06L 13.9025 -4.91716e-06Z" transform="translate(5.81958 162.092)" fill="#BE1E2D"/>
</g>
</g>
</g>
</g>
</svg>

